<svg width="80" height="80" viewBox="0 0 80 80" fill="none" xmlns="http://www.w3.org/2000/svg">
<path d="M52.5156 59.879L45.6159 57.8838V54.2062C47.4942 52.4705 48.5269 50.378 48.5269 48.2796V45.4993C49.3189 44.7687 50.9191 43.1854 51.5653 41.7687C54.6278 35.0555 50.4619 30.5724 50.2831 30.3848C50.162 30.259 50.0161 30.1599 49.8546 30.0938C49.693 30.0276 49.5195 29.9959 49.345 30.0006C49.1705 30.0052 48.9989 30.0462 48.8411 30.1209C48.6834 30.1956 48.5429 30.3024 48.4288 30.4345C48.4186 30.4462 47.3847 31.6024 46.4166 31.4091C45.7891 31.2687 45.1718 31.086 44.5689 30.8623C43.0641 30.3451 41.1914 29.7012 38.0316 29.7012C30.7525 29.7012 28.4464 33.3149 27.7934 36.3465C26.7325 41.2723 29.9199 44.4645 31.2689 45.5652V48.2809C31.2689 50.4095 32.3264 52.5326 34.2472 54.282V57.8913L27.3683 59.8805C26.0129 60.2784 24.8224 61.1038 23.9745 62.2336C23.1267 63.3635 22.6669 64.7372 22.6638 66.1498L22.7802 78.7634C22.7832 79.0929 22.9163 79.4079 23.1503 79.6398C23.3844 79.8717 23.7006 80.0018 24.0302 80.0018H24.042C24.2062 80.0003 24.3684 79.9665 24.5195 79.9022C24.6706 79.838 24.8076 79.7447 24.9226 79.6275C25.0376 79.5104 25.1284 79.3717 25.1898 79.2195C25.2512 79.0672 25.282 78.9044 25.2805 78.7402L25.1641 66.1382C25.1668 65.2687 25.4505 64.4233 25.9728 63.7281C26.4951 63.033 27.2281 62.5252 28.0625 62.2805L34.7188 60.3559C35.4824 61.9441 37.1563 63.7945 40.1305 63.7945C43.1016 63.7945 44.6111 61.9835 45.2469 60.3795L51.8211 62.2805C52.657 62.526 53.391 63.0354 53.9136 63.7325C54.4361 64.4296 54.7191 65.277 54.7203 66.1482L54.8367 78.7618C54.8398 79.0913 54.9728 79.4063 55.2069 79.6382C55.441 79.8701 55.7572 80.0002 56.0867 80.0002H56.0986C56.2628 79.9987 56.425 79.9649 56.5761 79.9007C56.7272 79.8365 56.8641 79.7431 56.9791 79.626C57.0941 79.5088 57.1849 79.3702 57.2463 79.2179C57.3077 79.0657 57.3386 78.9028 57.337 78.7387L57.2206 66.1366C57.2155 64.7258 56.7547 63.3544 55.9069 62.2268C55.059 61.0992 53.8695 60.2756 52.5156 59.879ZM30.2372 36.8724C30.9049 33.7726 33.5272 32.2005 38.0314 32.2005C40.7734 32.2005 42.2897 32.7218 43.7561 33.2259C44.4645 33.4875 45.1902 33.6996 45.928 33.8607C46.9709 34.0688 48.0758 33.8093 49.1217 33.1107L49.1606 33.0845C49.9473 34.4499 50.92 37.1593 49.2908 40.7315C49.0531 41.2523 48.552 41.8849 48.0234 42.4646C47.6641 41.2862 47.1247 40.2615 46.3167 39.9143C46.0357 39.7944 45.7281 39.7504 45.4247 39.7867C45.1214 39.823 44.8328 39.9382 44.588 40.121C43.0025 41.2451 42.1325 41.7707 39.6974 41.4335C38.3681 41.258 37.0879 40.8161 35.9334 40.1343C35.7763 40.0293 35.5976 39.9612 35.4104 39.935C35.2233 39.9088 35.0327 39.9252 34.8528 39.983C34.6729 40.0408 34.5084 40.1385 34.3716 40.2687C34.2347 40.399 34.1291 40.5586 34.0625 40.7354C34.0588 40.7455 33.6681 41.7637 32.588 43.1729C32.5512 43.2208 32.5144 43.2663 32.4777 43.3095C31.3895 42.3095 29.5469 40.0784 30.2372 36.8724ZM33.7684 45.5532C34.0635 45.2935 34.3327 45.0057 34.572 44.6938C35.0176 44.1165 35.4234 43.5094 35.7866 42.877C36.9205 43.3894 38.1219 43.7371 39.3542 43.9095C42.2719 44.3137 43.7772 43.6832 45.4167 42.5866C45.6999 43.3809 45.904 44.2012 46.0261 45.0355V48.2796C46.0261 51.5634 41.905 54.3932 39.8819 54.3932C37.8688 54.3932 33.7681 51.5634 33.7681 48.2796L33.7684 45.5532ZM40.1298 61.2945C37.7291 61.2945 36.9525 59.3645 36.7642 58.7404C36.7612 58.6923 36.7553 58.6445 36.7467 58.5971V56.0224C37.838 56.5787 38.9352 56.8932 39.8822 56.8932C40.8564 56.8932 41.9916 56.5602 43.1155 55.9748V58.7441C43.0286 59.2227 42.8489 59.6796 42.5866 60.0891C42.0531 60.9002 41.25 61.2945 40.1302 61.2945H40.1298Z" fill="#72A206"/>
<path d="M24.1389 47.6365C24.7774 47.8254 25.3377 48.2156 25.7364 48.749C26.135 49.2823 26.3506 49.9302 26.3511 50.596L26.3336 56.542C26.3332 56.7061 26.3651 56.8688 26.4275 57.0206C26.4899 57.1724 26.5817 57.3105 26.6974 57.4269C26.8132 57.5432 26.9508 57.6357 27.1023 57.6989C27.2538 57.7621 27.4163 57.7948 27.5805 57.7952H27.5836C27.9146 57.7952 28.232 57.664 28.4664 57.4302C28.7007 57.1965 28.8328 56.8793 28.8336 56.5484L28.8511 50.6026C28.8501 49.3953 28.4591 48.2207 27.7363 47.2538C27.0135 46.2869 25.9976 45.5794 24.84 45.2368L19.3375 43.6295L19.345 40.8746C20.8934 39.423 21.745 37.674 21.7497 35.9141L21.7556 33.7266C22.44 33.0915 23.7087 31.8191 24.24 30.6641C26.8323 25.0207 23.3219 21.2221 23.1713 21.063C23.0516 20.9354 22.9063 20.8344 22.745 20.7667C22.5836 20.699 22.4098 20.6661 22.2349 20.6702C22.0599 20.6743 21.8878 20.7153 21.7298 20.7904C21.5718 20.8656 21.4314 20.9732 21.3178 21.1063C21.0711 21.3876 20.3941 21.9345 19.8747 21.8307C19.3694 21.7156 18.8724 21.5667 18.387 21.3849C17.137 20.9512 15.58 20.4115 12.9469 20.4043H12.9C8.14531 20.4043 5.0925 22.3963 4.3025 26.0162C3.41609 30.0787 5.95094 32.7523 7.13188 33.7468L7.12625 35.8751C7.12156 37.6601 7.98453 39.4376 9.55922 40.9095L9.55188 43.6084L4.05813 45.1809C2.89847 45.5174 1.87859 46.2196 1.15048 47.1828C0.422377 48.1461 0.0250289 49.3189 0.017657 50.5263L7.93253e-07 65.4898C-0.000372396 65.8213 0.130944 66.1393 0.365067 66.374C0.59919 66.6087 0.916945 66.7408 1.24844 66.7412H1.25C1.58128 66.7412 1.89901 66.6097 2.13339 66.3756C2.36777 66.1414 2.49963 65.8239 2.5 65.4926L2.51766 50.5312C2.52186 49.8654 2.74106 49.2188 3.14259 48.6876C3.54412 48.1565 4.1065 47.7694 4.74594 47.5838L10.0403 46.0682C10.7278 47.3924 12.1455 48.8562 14.5938 48.8627H14.6108C17.0455 48.8627 18.3416 47.4445 18.9331 46.1155L24.1389 47.6365ZM11.4202 39.2243C10.2775 38.2155 9.62328 36.997 9.62703 35.8805L9.63297 33.7412C9.85724 33.5365 10.0632 33.3127 10.2486 33.0723C10.5806 32.6437 10.8869 32.1957 11.1656 31.7307C12.0613 32.1187 13.0047 32.3852 13.9709 32.5232C16.2878 32.8513 17.5898 32.3787 18.8698 31.5701C19.0419 32.1231 19.1715 32.6885 19.2575 33.2613L19.2505 35.907C19.2436 38.4355 15.9597 40.6963 14.4131 40.693C13.75 40.6915 12.5089 40.1863 11.4194 39.2243H11.4202ZM6.74547 26.5496C6.9425 25.647 7.54016 22.9048 12.897 22.9048H12.94C15.1553 22.9107 16.3817 23.336 17.5678 23.7473C18.1585 23.9672 18.7638 24.1458 19.3792 24.2816C20.2885 24.4456 21.226 24.2561 22.0003 23.752C22.5898 24.8884 23.1936 26.9529 21.9681 29.621C21.7647 30.0087 21.5126 30.3689 21.2181 30.6929C20.8663 29.7062 20.398 29.0826 19.8175 28.8315C19.5519 28.7167 19.2608 28.6737 18.9734 28.7068C18.686 28.7398 18.4123 28.8478 18.1797 29.0199C16.9236 29.9055 16.2344 30.3191 14.3203 30.0484C13.2624 29.9057 12.2439 29.5523 11.325 29.009C11.1688 28.9018 10.9902 28.8318 10.8028 28.8041C10.6154 28.7764 10.4241 28.7918 10.2436 28.8493C10.0631 28.9067 9.89804 29.0045 9.76105 29.1354C9.62407 29.2662 9.51875 29.4266 9.45313 29.6043C9.15925 30.269 8.78234 30.8937 8.33141 31.4637C7.46875 30.6059 6.23078 28.9079 6.74547 26.5496ZM14.6094 46.363H14.6003C12.8025 46.3582 12.2097 44.9184 12.0611 44.4362C12.0583 44.4068 12.0546 44.3775 12.0498 44.3484L12.0545 42.603C12.7884 42.9624 13.5896 43.1636 14.4063 43.1934H14.4164C15.2589 43.1634 16.0855 42.9544 16.8409 42.5802L16.8358 44.4848C16.7656 44.9098 16.3983 46.363 14.6094 46.363ZM75.9886 45.2368L71.5566 43.9421H74.8766C75.2081 43.9421 75.526 43.8104 75.7604 43.576C75.9949 43.3416 76.1266 43.0236 76.1266 42.6921V32.151C76.1266 29.3582 75.0171 26.6799 73.0424 24.7051C71.0676 22.7303 68.3892 21.6209 65.5964 21.6209C62.8036 21.6209 60.1253 22.7303 58.1505 24.7051C56.1757 26.6799 55.0663 29.3582 55.0663 32.151V42.6921C55.0663 43.0236 55.1979 43.3416 55.4324 43.576C55.6668 43.8104 55.9847 43.9421 56.3163 43.9421H59.533L55.2066 45.1804C54.0472 45.5168 53.0276 46.2188 52.2996 47.1817C51.5715 48.1446 51.1741 49.317 51.1664 50.5241L51.1489 56.5416C51.1481 56.8731 51.279 57.1914 51.5128 57.4264C51.7466 57.6614 52.0641 57.7939 52.3956 57.7948H52.3989C52.7299 57.7948 53.0474 57.6635 53.2817 57.4298C53.516 57.196 53.6481 56.8789 53.6489 56.5479L53.6664 50.5307C53.6706 49.8649 53.8898 49.2183 54.2913 48.6872C54.6928 48.156 55.2552 47.7689 55.8947 47.5834L61.3531 46.0209C61.8331 47.4377 63.1236 48.8624 65.6173 48.8624C67.3155 48.8624 68.3273 48.1976 68.877 47.6398C69.3159 47.189 69.6441 46.6425 69.8359 46.0434L75.2877 47.6359C75.9264 47.8251 76.487 48.2157 76.8857 48.7494C77.2843 49.2832 77.4998 49.9315 77.5 50.5977L77.4823 65.561C77.4821 65.7252 77.5143 65.8878 77.5769 66.0395C77.6395 66.1912 77.7314 66.3291 77.8474 66.4454C77.9633 66.5616 78.101 66.6538 78.2525 66.7168C78.4041 66.7798 78.5666 66.8124 78.7308 66.8126H78.7323C79.0636 66.8126 79.3813 66.6811 79.6157 66.447C79.8501 66.2128 79.982 65.8953 79.9823 65.564L80 50.6026C79.9989 49.3953 79.6079 48.2207 78.885 47.2538C78.1621 46.2869 77.1462 45.5794 75.9886 45.2368ZM61.3614 36.768V34.2188C61.3614 34.2099 61.3937 33.3049 61.9125 32.7918C62.3752 32.3345 62.7509 31.9252 63.0563 31.5621C63.71 32.3874 64.5288 33.0672 65.4603 33.558C66.8441 34.2915 68.3119 34.854 69.8314 35.2332V36.7691C69.8302 37.8889 69.3848 38.9625 68.593 39.7544C67.8012 40.5462 66.7276 40.9916 65.6078 40.9929H65.585C64.4651 40.9916 63.3915 40.5461 62.5997 39.7542C61.8078 38.9623 61.3625 37.8886 61.3614 36.7687V36.768ZM57.5663 32.1504C57.5795 30.0293 58.4313 27.9997 59.9359 26.5045C61.4404 25.0094 63.4753 24.1702 65.5964 24.1702C67.7175 24.1702 69.7524 25.0094 71.257 26.5045C72.7615 27.9997 73.6133 30.0293 73.6266 32.1504V41.4415H70.4348C71.6517 40.1902 72.3322 38.5134 72.3314 36.768V34.2188C72.3314 33.9189 72.2235 33.6289 72.0274 33.4019C71.8314 33.1749 71.5602 33.0259 71.2634 32.9823C69.6466 32.68 68.0861 32.1301 66.6369 31.3521C64.8103 30.378 64.3586 28.8734 64.3441 28.8238C64.2017 28.2248 63.66 27.7505 63.0464 27.798C62.7648 27.8066 62.4957 27.9163 62.2883 28.107C62.0809 28.2977 61.949 28.5567 61.9169 28.8366C61.8361 29.012 61.458 29.7255 60.1547 31.0143C58.8977 32.2574 58.8614 34.0218 58.8614 34.2188V36.7691C58.8607 38.5145 59.5411 40.1913 60.7578 41.4426H57.5663V32.1504ZM67.5647 44.7191C67.5559 45.2213 67.345 46.3624 65.6173 46.3624C63.8673 46.3624 63.6427 45.2012 63.628 44.696V43.2004C64.2623 43.3939 64.9218 43.4921 65.585 43.4918H65.6078C66.271 43.4921 66.9305 43.3938 67.5648 43.2004V44.7068C67.5648 44.7216 67.5644 44.7127 67.5647 44.7198V44.7191Z" fill="#222222"/>
<path d="M26.7138 32.1643H26.7495C27.0748 32.1641 27.3873 32.0371 27.6205 31.8103C27.8537 31.5835 27.9893 31.2747 27.9985 30.9496L28.0163 30.3233V30.2913C28.0198 29.6221 28.2391 28.9718 28.6416 28.4372C29.0442 27.9026 29.6085 27.5121 30.2506 27.3238L35.6708 25.8308C35.8736 26.3882 36.1928 26.896 36.607 27.3205C37.438 28.1635 38.5794 28.5908 39.9999 28.5908C42.4686 28.5908 43.8038 27.2513 44.3581 25.8533L49.7708 27.3732C50.2726 27.5181 50.7295 27.7881 51.0984 28.1579C51.4674 28.5277 51.7363 28.9851 51.8802 29.4872C51.9722 29.8057 52.187 30.0746 52.4773 30.2347C52.7676 30.3948 53.1096 30.433 53.4281 30.341C53.7466 30.2489 54.0155 30.0341 54.1756 29.7438C54.3357 29.4535 54.3739 29.1115 54.2819 28.793C54.0517 27.9902 53.6439 27.2495 53.0886 26.6257C52.5333 26.0019 51.8448 25.511 51.0741 25.1894V11.0108C51.0631 8.08703 49.8939 5.28674 47.8226 3.22318C45.7512 1.15962 42.9466 0.000976562 40.0227 0.000976562C37.0989 0.000976563 34.2943 1.15962 32.2229 3.22318C30.1516 5.28674 28.9824 8.08703 28.9714 11.0108V25.1297C27.9565 25.5549 27.0884 26.2681 26.4746 27.1814C25.8607 28.0946 25.528 29.1677 25.5175 30.268L25.5 30.8794C25.4906 31.2107 25.6132 31.5322 25.8408 31.7732C26.0685 32.0141 26.3824 32.1548 26.7138 32.1643ZM44.5652 15.888C44.5638 17.0894 44.086 18.2411 43.2365 19.0906C42.387 19.9401 41.2353 20.4179 40.0339 20.4193H40.0097C38.8083 20.4179 37.6566 19.9401 36.8071 19.0906C35.9576 18.2411 35.4798 17.0894 35.4784 15.888V14.2107C37.0969 13.8117 38.6602 13.2152 40.133 12.4344C41.134 11.9073 42.0104 11.1717 42.7031 10.2772C43.0334 10.6749 43.4464 11.1271 43.962 11.6366C44.4428 12.1119 44.5605 12.9293 44.5652 13.1938V15.888ZM41.9019 25.1983C41.5669 25.7991 40.9449 26.0913 40 26.0913C38.0978 26.0913 37.8788 24.8216 37.8728 24.2905C37.8731 24.2845 37.8731 24.2785 37.8728 24.2725V22.5858C38.5636 22.8068 39.2846 22.9192 40.0099 22.919H40.0341C40.7594 22.9192 41.4803 22.8069 42.1711 22.5858V24.2725C42.1474 24.5966 42.0557 24.9121 41.9019 25.1983ZM40.0222 2.50005C42.284 2.49726 44.4545 3.39175 46.0576 4.98727C47.6607 6.58279 48.5655 8.74906 48.5735 11.0108V24.4407L44.6719 23.3449V21.1663C45.424 20.5079 46.0266 19.6963 46.4395 18.786C46.8524 17.8757 47.0659 16.8876 47.0658 15.888V13.1944C47.0658 12.9893 47.0281 11.1525 45.7205 9.85974C44.3156 8.4702 43.9206 7.70723 43.8405 7.5288C43.8067 7.25216 43.6754 6.99663 43.4701 6.80817C43.2648 6.61971 42.999 6.51067 42.7205 6.50067C42.1139 6.44864 41.5714 6.91224 41.4169 7.50067C41.3974 7.5688 40.915 9.18411 38.957 10.2282C37.4177 11.0507 35.762 11.6339 34.0469 11.9577C33.7501 12.0014 33.4789 12.1504 33.2829 12.3774C33.0868 12.6044 32.9789 12.8944 32.9789 13.1944V15.888C32.9788 16.8876 33.1923 17.8757 33.6052 18.786C34.0181 19.6963 34.6207 20.5079 35.3728 21.1663V23.3202L31.4706 24.3952V11.0108C31.4786 8.74901 32.3834 6.58269 33.9866 4.98716C35.5898 3.39163 37.7604 2.49718 40.0222 2.50005Z" fill="#222222"/>
</svg>
