<svg width="80" height="60" viewBox="0 0 80 60" fill="none" xmlns="http://www.w3.org/2000/svg">
<path d="M79.4287 27.1066C79.2375 26.909 79.0086 26.7518 78.7555 26.6443C78.5025 26.5367 78.2304 26.481 77.9555 26.4803H34.4819L36.6295 4.83783C36.6841 4.29002 36.5031 3.74189 36.1336 3.33393C35.7641 2.92596 35.2364 2.69189 34.6859 2.69189H5.80875C5.25828 2.69189 4.73062 2.92596 4.36109 3.33377C4.17817 3.53607 4.03956 3.77437 3.95416 4.03338C3.86875 4.2924 3.83844 4.56641 3.86516 4.83783L7.915 45.6517H3.27594C1.46953 45.6517 0 47.1213 0 48.9277C0 50.7341 1.46953 52.2036 3.27594 52.2036H5.91469C7.80984 56.3313 11.9302 59.022 16.5606 59.022H63.3425C64.4691 59.022 65.3856 58.1055 65.3856 56.9789V50.6405C69.4341 48.7472 72.9128 45.8175 75.4803 42.1303C78.2581 38.141 79.8205 33.4606 79.9984 28.5952C80.0187 28.0456 79.8109 27.5031 79.4287 27.1066ZM7.21937 14.905H22.8125C23.4598 14.905 23.9844 14.3805 23.9844 13.7331C23.9844 13.0858 23.4598 12.5613 22.8125 12.5613H6.98688L6.24016 5.0358H34.2547L33.508 12.5613H28.2812C27.6339 12.5613 27.1094 13.0858 27.1094 13.7331C27.1094 14.3805 27.6339 14.905 28.2812 14.905H33.2753L32.1267 26.4805H31.3411C31.0661 26.4811 30.794 26.5368 30.541 26.6444C30.2879 26.752 30.0589 26.9092 29.8677 27.1067C29.678 27.3041 29.5299 27.5376 29.432 27.7932C29.3342 28.0488 29.2885 28.3215 29.2978 28.595C29.3256 29.3542 29.3919 30.1081 29.4869 30.8564C29.0236 30.67 28.5289 30.5739 28.0295 30.5731C26.8277 30.5731 25.7087 31.1252 24.9472 32.0906C24.4909 31.9214 24.0145 31.8325 23.5428 31.8325C22.1189 31.8325 20.8489 32.5814 20.1456 33.8356C20.0676 33.9746 19.9977 34.1179 19.9361 34.2649C19.8234 34.2557 19.7104 34.2511 19.5973 34.2511C17.9689 34.2511 16.5359 35.2206 15.9469 36.7217C15.8214 37.0407 15.7364 37.3741 15.6939 37.7142C14.1688 38.0081 12.9748 39.1049 12.6077 40.6261C12.4866 41.1272 12.4669 41.6533 12.545 42.1744C11.325 42.7756 10.5108 43.9053 10.3719 45.2875C10.36 45.4086 10.3537 45.5302 10.353 45.6519H10.2705L7.21937 14.905ZM3.27594 49.8597C2.76187 49.8597 2.34375 49.4414 2.34375 48.9275C2.34375 48.4136 2.76187 47.9953 3.27594 47.9953H34.5312C35.1786 47.9953 35.7031 47.4708 35.7031 46.8235C35.7031 46.1761 35.1786 45.6516 34.5312 45.6516H12.6978C12.6984 45.6081 12.6992 45.5647 12.7034 45.5214C12.7783 44.7774 13.3469 44.2271 14.1875 44.085C14.3667 44.0547 14.5365 43.9831 14.6833 43.8759C14.8301 43.7687 14.95 43.6288 15.0334 43.4673C15.1168 43.3058 15.1615 43.1271 15.164 42.9453C15.1664 42.7636 15.1265 42.5837 15.0475 42.42C14.8489 42.0081 14.7911 41.5666 14.8856 41.1761C15.0611 40.4492 15.7047 39.9794 16.5255 39.9794C16.6041 39.9794 16.6847 39.9836 16.7648 39.9924C16.9461 40.0117 17.1294 39.9885 17.3001 39.9246C17.4709 39.8606 17.6243 39.7578 17.7483 39.6241C17.8723 39.4905 17.9634 39.3297 18.0144 39.1547C18.0653 38.9796 18.0747 38.7951 18.0419 38.6158C17.9741 38.2463 18.0033 37.8967 18.1284 37.5775C18.3628 36.9806 18.9392 36.5949 19.597 36.5949C19.8445 36.5949 20.097 36.646 20.3478 36.7467C20.517 36.8148 20.6998 36.8424 20.8816 36.8273C21.0634 36.8122 21.2391 36.7549 21.3948 36.6599C21.5506 36.565 21.682 36.435 21.7787 36.2803C21.8753 36.1256 21.9345 35.9505 21.9516 35.7689C21.9788 35.4799 22.0589 35.2152 22.1895 34.9821C22.4767 34.47 22.9698 34.1763 23.5425 34.1763C23.9239 34.1763 24.3275 34.3236 24.6791 34.5914C24.8236 34.7015 24.9918 34.7764 25.1703 34.8103C25.3488 34.8442 25.5327 34.8361 25.7075 34.7868C25.8824 34.7374 26.0433 34.6481 26.1777 34.5259C26.3122 34.4037 26.4163 34.2519 26.482 34.0825C26.5516 33.9001 26.6465 33.7283 26.7639 33.5722C27.0792 33.1556 27.5405 32.9169 28.0292 32.9169C28.5572 32.9169 29.0675 33.1919 29.4289 33.6713C29.5381 33.8162 29.6795 33.9337 29.8419 34.0147C30.0042 34.0956 30.1832 34.1378 30.3646 34.1378C30.5461 34.1377 30.7251 34.0956 30.8874 34.0146C31.0498 33.9336 31.1911 33.816 31.3003 33.6711C31.6617 33.1919 32.1717 32.9169 32.6997 32.9169C33.1883 32.9169 33.6494 33.1558 33.965 33.5722C34.0791 33.723 34.1741 33.8949 34.2472 34.0831C34.3129 34.2525 34.4171 34.4043 34.5515 34.5265C34.686 34.6487 34.847 34.7379 35.0218 34.7872C35.1967 34.8365 35.3806 34.8445 35.5591 34.8105C35.7375 34.7765 35.9057 34.7015 36.0502 34.5914C36.4014 34.3236 36.8048 34.1763 37.1864 34.1763C37.7589 34.1763 38.252 34.47 38.5391 34.9817C38.67 35.2153 38.7502 35.4803 38.7773 35.7692C38.7945 35.9508 38.8537 36.1259 38.9504 36.2805C39.0471 36.4351 39.1785 36.5651 39.3342 36.66C39.4899 36.7549 39.6657 36.8121 39.8474 36.8271C40.0291 36.8422 40.2119 36.8146 40.3811 36.7466C40.6316 36.646 40.8841 36.5949 41.1317 36.5949C41.7895 36.5949 42.3658 36.9806 42.6 37.5775C42.7253 37.8969 42.7544 38.2463 42.6869 38.616C42.654 38.7953 42.6634 38.9798 42.7144 39.1549C42.7654 39.3299 42.8566 39.4906 42.9806 39.6242C43.1045 39.7581 43.258 39.8611 43.4288 39.925C43.5995 39.9889 43.7829 40.0119 43.9642 39.9922C44.0436 39.9837 44.1234 39.9794 44.2033 39.9794C45.0239 39.9794 45.6675 40.4492 45.843 41.1761C45.9373 41.5664 45.8797 42.0083 45.6809 42.4202C45.602 42.5839 45.5622 42.7637 45.5647 42.9455C45.5672 43.1272 45.612 43.3059 45.6954 43.4673C45.7788 43.6288 45.8987 43.7687 46.0454 43.8759C46.1922 43.9831 46.3619 44.0547 46.5411 44.085C47.3816 44.2271 47.9502 44.7775 48.0248 45.5213C48.0292 45.5646 48.03 45.6081 48.0306 45.6516H40C39.3527 45.6516 38.8281 46.1761 38.8281 46.8235C38.8281 47.4708 39.3527 47.9953 40 47.9953H57.4534C57.9675 47.9953 58.3856 48.4136 58.3856 48.9275C58.3856 49.4414 57.9675 49.8597 57.4534 49.8597H3.27594ZM44.1687 56.6781H16.5606C13.2366 56.6781 10.2409 54.945 8.56484 52.2035H52.1644C50.4883 54.945 47.4928 56.6781 44.1687 56.6781ZM73.5572 40.7906C71.0909 44.3324 67.6998 47.1038 63.7502 48.8058C63.5399 48.8964 63.3607 49.0466 63.2349 49.2379C63.1091 49.4291 63.042 49.6531 63.042 49.882V56.6781H51.2084C52.7642 55.51 54.0038 53.9719 54.8147 52.2035H57.4536C59.26 52.2035 60.7295 50.7339 60.7295 48.9275C60.7295 47.1211 59.26 45.6516 57.4536 45.6516H50.3762C50.3756 45.5297 50.3693 45.408 50.3573 45.2867C50.2184 43.9049 49.4044 42.7752 48.1845 42.1739C48.2625 41.6531 48.2428 41.1271 48.1219 40.626C48.0139 40.1753 47.8262 39.7475 47.5677 39.3628H74.4737C74.1858 39.8498 73.8801 40.3261 73.5572 40.7906ZM75.6827 37.0192H44.8848C44.8541 36.9192 44.8208 36.8199 44.7822 36.7216C44.1934 35.221 42.7606 34.2511 41.1322 34.2511C41.0191 34.2511 40.9061 34.2556 40.7933 34.2649C40.7748 34.221 40.7542 34.178 40.7342 34.1347H76.7434C76.4549 35.1189 76.1005 36.0826 75.6827 37.0192ZM77.2978 31.791H35.52C34.7747 31.0124 33.7706 30.5731 32.7 30.5731C32.4057 30.5737 32.1125 30.6075 31.8258 30.6738C31.7432 30.0599 31.6858 29.4428 31.6536 28.8242H77.643C77.5921 29.8196 77.4768 30.8105 77.2978 31.791Z" fill="#222222"/>
<path d="M29.0497 37.9176H27.2962C26.6489 37.9176 26.1244 38.4421 26.1244 39.0895C26.1244 39.7368 26.6489 40.2613 27.2962 40.2613H29.0497C29.697 40.2613 30.2215 39.7368 30.2215 39.0895C30.2215 38.4421 29.697 37.9176 29.0497 37.9176ZM37.4656 40.3723H35.7122C35.0648 40.3723 34.5403 40.8968 34.5403 41.5441C34.5403 42.1915 35.0648 42.716 35.7122 42.716H37.4656C38.113 42.716 38.6375 42.1915 38.6375 41.5441C38.6375 40.8968 38.113 40.3723 37.4656 40.3723ZM21.5103 41.249H19.757C19.1097 41.249 18.5851 41.7735 18.5851 42.4209C18.5851 43.0682 19.1097 43.5927 19.757 43.5927H21.5103C22.1576 43.5927 22.6822 43.0682 22.6822 42.4209C22.6822 41.7735 22.1576 41.249 21.5103 41.249ZM45.6019 23.8352C46.2492 23.8352 46.7737 23.3107 46.7737 22.6634V20.5162C46.7737 19.7154 47.4253 19.0638 48.2261 19.0638H59.3594C61.4525 19.0638 63.1555 17.361 63.1555 15.2677C63.1555 13.1745 61.4526 11.4716 59.3594 11.4716H49.8167C49.0158 11.4716 48.3642 10.8201 48.3642 10.0191C48.3642 9.21836 49.0158 8.5668 49.8167 8.5668H58.5937C59.2411 8.5668 59.7656 8.04227 59.7656 7.39492C59.7656 6.74758 59.2411 6.22305 58.5937 6.22305H49.8165C47.7234 6.22305 46.0203 7.92586 46.0203 10.0191C46.0203 12.1124 47.7233 13.8154 49.8165 13.8154H59.3592C60.16 13.8154 60.8116 14.467 60.8116 15.2677C60.8116 16.0685 60.16 16.7201 59.3592 16.7201H48.2259C46.1328 16.7201 44.4298 18.4229 44.4298 20.5162V22.6634C44.4299 22.9742 44.5534 23.2722 44.7732 23.492C44.993 23.7118 45.291 23.8352 45.6019 23.8352ZM64.0748 8.55023H71.917C74.0045 8.55023 75.703 6.8518 75.703 4.7643C75.703 2.6768 74.0045 0.978516 71.917 0.978516H66.6889C66.0415 0.978516 65.517 1.50305 65.517 2.15039C65.517 2.79773 66.0415 3.32227 66.6889 3.32227H71.917C72.7123 3.32227 73.3592 3.9693 73.3592 4.7643C73.3592 5.55961 72.7122 6.20648 71.917 6.20648H64.0748C63.4275 6.20648 62.903 6.73102 62.903 7.37836C62.903 8.0257 63.4276 8.55023 64.0748 8.55023Z" fill="#72A206"/>
</svg>
