<svg width="76" height="80" viewBox="0 0 76 80" fill="none" xmlns="http://www.w3.org/2000/svg">
<path d="M52.8841 44.5301C52.8841 42.743 51.4355 41.2944 49.6485 41.2944C47.8614 41.2944 46.4128 42.7432 46.4128 44.5301V48.4129C46.4128 50.1999 47.8614 51.6485 49.6485 51.6485C51.4355 51.6485 52.8841 50.1999 52.8841 48.4129V44.5301Z" stroke="#222222" stroke-width="2" stroke-miterlimit="10" stroke-linecap="round" stroke-linejoin="round"/>
<path d="M38.4791 78.8282H45.1184C45.4617 78.8282 45.7909 78.6918 46.0336 78.4491C46.2763 78.2064 46.4127 77.8772 46.4127 77.534V69.7182C46.4127 68.9318 46.7702 68.188 47.3841 67.697C49.1002 66.3241 50.4856 64.5827 51.4376 62.6019C52.3896 60.6211 52.8839 58.4515 52.8839 56.2538V47.7657M12.1145 8.93758C11.7745 8.93804 11.4378 8.87128 11.1237 8.74115C10.8096 8.61101 10.5243 8.42007 10.2842 8.1793L7.69563 5.59086C6.68469 4.58008 6.68469 2.94102 7.69563 1.93023C8.70641 0.919297 10.3455 0.919297 11.3563 1.93023L13.9448 4.51883C14.9558 5.52961 14.9558 7.16867 13.9448 8.17945C13.7048 8.42019 13.4195 8.6111 13.1054 8.74121C12.7913 8.87132 12.4545 8.93805 12.1145 8.93758ZM63.8855 8.93758C64.2255 8.93804 64.5622 8.87128 64.8763 8.74115C65.1904 8.61101 65.4757 8.42007 65.7158 8.1793L68.3044 5.5907C69.3153 4.57992 69.3153 2.94086 68.3044 1.93008C67.2936 0.919141 65.6545 0.919141 64.6437 1.93008L62.0552 4.51867C61.0442 5.52945 61.0442 7.16852 62.0552 8.1793C62.2952 8.42007 62.5805 8.61101 62.8946 8.74115C63.2087 8.87128 63.5455 8.93804 63.8855 8.93758ZM63.8855 45.1771C64.548 45.1771 65.2103 45.4298 65.7158 45.9352L68.3044 48.5238C69.3153 49.5346 69.3153 51.1737 68.3044 52.1845C67.2936 53.1954 65.6545 53.1954 64.6437 52.1845L62.0552 49.5959C61.0442 48.5851 61.0442 46.946 62.0552 45.9352C62.2953 45.6945 62.5806 45.5037 62.8947 45.3736C63.2088 45.2434 63.5455 45.1767 63.8855 45.1771ZM12.1145 45.1771C11.452 45.1771 10.7897 45.4298 10.2842 45.9352L7.69563 48.5238C6.68469 49.5346 6.68469 51.1737 7.69563 52.1845C8.70641 53.1954 10.3455 53.1954 11.3563 52.1845L13.9448 49.5959C14.9558 48.5851 14.9558 46.946 13.9448 45.9352C13.7047 45.6945 13.4194 45.5036 13.1053 45.3735C12.7912 45.2434 12.4545 45.1767 12.1145 45.1771ZM6.9375 29.6459H4.34891C2.91922 29.6459 1.76031 28.487 1.76031 27.0573C1.76031 25.6276 2.91922 24.4688 4.34891 24.4688H6.9375C8.36719 24.4688 9.5261 25.6277 9.5261 27.0574C9.5261 28.4871 8.36719 29.6459 6.9375 29.6459ZM71.6511 29.6459H69.0625C67.6328 29.6459 66.4739 28.487 66.4739 27.0573C66.4739 25.6276 67.6328 24.4688 69.0625 24.4688H71.6511C73.0808 24.4688 74.2397 25.6277 74.2397 27.0574C74.2397 28.4871 73.0808 29.6459 71.6511 29.6459ZM46.4128 40.6473C46.4128 38.8602 44.9642 37.4116 43.1772 37.4116C41.3902 37.4116 39.9416 38.8602 39.9416 40.6473V48.4129C39.9416 50.1999 41.3902 51.6485 43.1772 51.6485C44.9642 51.6485 46.4128 50.1999 46.4128 48.4129V40.6473Z" stroke="#222222" stroke-width="2" stroke-miterlimit="10" stroke-linecap="round" stroke-linejoin="round"/>
<path d="M23.4917 58.6932C23.242 57.6588 23.1159 56.5985 23.116 55.5344C23.116 53.8223 23.4427 52.126 24.0785 50.5363L24.4027 49.7257C24.787 48.765 25.4503 47.9415 26.3071 47.3614C27.1639 46.7813 28.1749 46.4713 29.2096 46.4713H38.6472C38.8172 46.4713 38.9855 46.5048 39.1425 46.5698C39.2995 46.6349 39.4422 46.7302 39.5624 46.8504C39.6825 46.9706 39.7779 47.1132 39.8429 47.2703C39.908 47.4273 39.9414 47.5956 39.9414 47.7655C39.9414 50.7362 37.7571 53.2546 34.8164 53.6747L30.8816 54.2369M32.3822 78.8282H30.8816C30.5383 78.8282 30.2092 78.6918 29.9664 78.4491C29.7237 78.2064 29.5874 77.8772 29.5874 77.534V68.424C29.5874 67.6376 29.2299 66.894 28.616 66.4027L28.1669 66.0435C27.2936 65.3449 26.5107 64.5402 25.8366 63.6479M52.8841 44.5301C52.8841 42.743 51.4355 41.2944 49.6485 41.2944C47.8614 41.2944 46.4128 42.7432 46.4128 44.5301V48.4129C46.4128 50.1999 47.8614 51.6485 49.6485 51.6485C51.4355 51.6485 52.8841 50.1999 52.8841 48.4129V44.5301Z" stroke="#222222" stroke-width="2" stroke-miterlimit="10" stroke-linecap="round" stroke-linejoin="round"/>
<path d="M52.8841 47.7657V56.2537C52.8841 58.4514 52.3898 60.6209 51.4378 62.6018C50.4857 64.5826 49.1004 66.3239 47.3842 67.6968C47.0811 67.9393 46.8364 68.2469 46.6683 68.5967C46.5001 68.9466 46.4128 69.3298 46.4128 69.718V77.5338C46.4128 77.8771 46.2765 78.2062 46.0338 78.449C45.7911 78.6917 45.4619 78.828 45.1186 78.828H37.8697M34.5442 53.7137C37.7233 55.1205 39.9413 58.3026 39.9413 62.0026M39.9414 47.7657V40.6472C39.9414 38.8602 38.4928 37.4116 36.7058 37.4116C34.9188 37.4116 33.4702 38.8602 33.4702 40.6472V46.4715M33.47 46.4715V41.9415C33.47 40.1544 32.0214 38.7058 30.2344 38.7058C28.4474 38.7058 26.9988 40.1544 26.9988 41.9415V46.6346" stroke="#222222" stroke-width="2" stroke-miterlimit="10" stroke-linecap="round" stroke-linejoin="round"/>
<path d="M42.9315 11.622L40.4277 6.54889C39.6382 4.9492 37.3573 4.9492 36.5679 6.54889L34.0642 11.622C33.9097 11.9349 33.6815 12.2056 33.3992 12.4107C33.1169 12.6158 32.789 12.7492 32.4437 12.7994L26.8451 13.6129C25.0798 13.8695 24.3749 16.0389 25.6523 17.284L29.7034 21.2329C29.9532 21.4765 30.1401 21.7772 30.2479 22.1091C30.3557 22.4409 30.3813 22.794 30.3223 23.1379L29.3659 28.7139C29.0643 30.4722 30.9098 31.813 32.4887 30.9828L37.4962 28.3501C37.8051 28.1877 38.1488 28.1029 38.4977 28.1029C38.8467 28.1029 39.1904 28.1877 39.4993 28.3501L44.5068 30.9828C46.0857 31.8128 47.9312 30.472 47.6296 28.7139L46.6732 23.1379C46.6142 22.794 46.6398 22.4409 46.7476 22.109C46.8555 21.7772 47.0424 21.4765 47.2923 21.2329L51.3434 17.284C52.6207 16.0389 51.9159 13.8695 50.1506 13.6129L44.552 12.7994C44.2067 12.7492 43.8787 12.6158 43.5964 12.4107C43.3141 12.2056 43.0859 11.9349 42.9315 11.622Z" stroke="#72A206" stroke-width="2" stroke-miterlimit="10" stroke-linecap="round" stroke-linejoin="round"/>
</svg>
