<svg width="80" height="80" viewBox="0 0 80 80" fill="none" xmlns="http://www.w3.org/2000/svg">
<path d="M14.2201 17.6737H8.62013V54.5435H71.3796V17.6737H19.427" stroke="#222222" stroke-width="2" stroke-miterlimit="10" stroke-linecap="round" stroke-linejoin="round"/>
<mask id="mask0_18_391" style="mask-type:luminance" maskUnits="userSpaceOnUse" x="0" y="0" width="80" height="80">
<path d="M78.9998 79V1.00024H1V79H78.9998Z" fill="white" stroke="white" stroke-width="2"/>
</mask>
<g mask="url(#mask0_18_391)">
<path d="M75.0602 60.7559C75.7232 60.1737 76.1438 59.3221 76.1438 58.3706V32.0088" stroke="#222222" stroke-width="2" stroke-miterlimit="10" stroke-linecap="round" stroke-linejoin="round"/>
<path d="M76.1437 26.8017V16.0861C76.1437 14.3319 74.7216 12.9101 72.9676 12.9101H7.03217C5.27795 12.9101 3.85592 14.3319 3.85592 16.0861V58.3706C3.85592 59.3221 4.27655 60.1737 4.93951 60.7559" stroke="#222222" stroke-width="2" stroke-miterlimit="10" stroke-linecap="round" stroke-linejoin="round"/>
<path d="M50.9116 67.0903H75.7277C77.4398 67.0903 78.8279 65.7024 78.8279 63.9902V61.6816C78.8279 61.5798 78.8079 61.479 78.7689 61.3849C78.73 61.2909 78.6729 61.2054 78.6009 61.1334C78.5289 61.0615 78.4435 61.0044 78.3494 60.9654C78.2553 60.9265 78.1545 60.9064 78.0527 60.9064H1.94687C1.84508 60.9064 1.74429 60.9265 1.65025 60.9655C1.55622 61.0044 1.47078 61.0615 1.39881 61.1335C1.32684 61.2055 1.26976 61.2909 1.23082 61.385C1.19188 61.479 1.17185 61.5798 1.17187 61.6816V63.9902C1.17187 65.7024 2.55984 67.0903 4.27186 67.0903H45.7047" stroke="#222222" stroke-width="2" stroke-miterlimit="10" stroke-linecap="round" stroke-linejoin="round"/>
<path d="M39.9999 17.6737V54.5435" stroke="#222222" stroke-width="2" stroke-miterlimit="10" stroke-linecap="round" stroke-linejoin="round"/>
<path d="M71.3796 36.1089H8.62013" stroke="#222222" stroke-width="2" stroke-miterlimit="10" stroke-linecap="round" stroke-linejoin="round"/>
<path d="M57.6775 29.1239C59.6376 29.953 61.0129 31.8939 61.0129 34.1559V36.1089H50.0905V34.1559C50.0905 31.8939 51.4659 29.953 53.4261 29.1239" stroke="#222222" stroke-width="2" stroke-miterlimit="10" stroke-linecap="round" stroke-linejoin="round"/>
<path d="M59.3014 25.5921C59.3014 27.8008 57.6226 29.5913 55.5519 29.5913C53.4811 29.5913 51.8023 27.8008 51.8023 25.5921C51.8023 23.3834 53.4811 21.5927 55.5519 21.5927C57.6226 21.5927 59.3014 23.3834 59.3014 25.5921Z" stroke="#72A206" stroke-width="2" stroke-miterlimit="10" stroke-linecap="round" stroke-linejoin="round"/>
<path d="M26.5734 29.1239C28.5334 29.953 29.9088 31.8939 29.9088 34.1559V36.1089H18.9863V34.1559C18.9863 31.8964 20.3587 29.9573 22.3152 29.1267" stroke="#222222" stroke-width="2" stroke-miterlimit="10" stroke-linecap="round" stroke-linejoin="round"/>
<path d="M28.1968 25.5921C28.1968 27.8008 26.518 29.5913 24.4473 29.5913C22.3765 29.5913 20.6979 27.8008 20.6979 25.5921C20.6979 23.3834 22.3765 21.5927 24.4473 21.5927C26.518 21.5927 28.1968 23.3834 28.1968 25.5921Z" stroke="#72A206" stroke-width="2" stroke-miterlimit="10" stroke-linecap="round" stroke-linejoin="round"/>
<path d="M57.6775 47.5585C59.6376 48.3875 61.0129 50.3285 61.0129 52.5905V54.5435H50.0905V52.5905C50.0905 50.3285 51.4659 48.3875 53.4261 47.5585" stroke="#222222" stroke-width="2" stroke-miterlimit="10" stroke-linecap="round" stroke-linejoin="round"/>
<path d="M59.3014 44.027C59.3014 46.2357 57.6226 48.0264 55.5519 48.0264C53.4811 48.0264 51.8023 46.2357 51.8023 44.027C51.8023 41.8183 53.4811 40.0276 55.5519 40.0276C57.6226 40.0276 59.3014 41.8183 59.3014 44.027Z" stroke="#72A206" stroke-width="2" stroke-miterlimit="10" stroke-linecap="round" stroke-linejoin="round"/>
<path d="M26.5734 47.5585C28.5334 48.3875 29.9088 50.3285 29.9088 52.5905V54.5435H18.9863V52.5905C18.9863 50.3872 20.291 48.4886 22.1701 47.6255" stroke="#222222" stroke-width="2" stroke-miterlimit="10" stroke-linecap="round" stroke-linejoin="round"/>
<path d="M28.1968 44.027C28.1968 46.2357 26.518 48.0264 24.4473 48.0264C22.3765 48.0264 20.6979 46.2357 20.6979 44.027C20.6979 41.8183 22.3765 40.0276 24.4473 40.0276C26.518 40.0276 28.1968 41.8183 28.1968 44.027Z" stroke="#72A206" stroke-width="2" stroke-miterlimit="10" stroke-linecap="round" stroke-linejoin="round"/>
</g>
</svg>
