<svg width="80" height="80" viewBox="0 0 80 80" fill="none" xmlns="http://www.w3.org/2000/svg">
<path d="M25.4017 46.4836V25.3413C25.4017 24.4457 24.6789 23.7197 23.7875 23.7197H2.78609C1.89453 23.7197 1.17188 24.4457 1.17188 25.3413V38.3819M1.17188 43.5974V53.5507C1.17188 54.4463 1.89469 55.1722 2.78609 55.1722H11.6716" stroke="#222222" stroke-width="2" stroke-miterlimit="10" stroke-linecap="round" stroke-linejoin="round"/>
<path d="M10.1938 37.1698C10.1461 37.1267 10.0997 37.0823 10.0544 37.0367C8.75797 35.734 8.33672 33.8865 8.78766 32.23C8.82255 32.1019 8.8901 31.9851 8.98369 31.8909C9.07727 31.7968 9.1937 31.7286 9.32157 31.6929C10.9719 31.2404 12.81 31.6633 14.1064 32.9659C15.2008 34.0634 15.6722 35.5493 15.5203 36.9836" stroke="#222222" stroke-width="2" stroke-miterlimit="10" stroke-linecap="round" stroke-linejoin="round"/>
<path d="M19.0172 46.5591C20.0736 45.2035 20.5438 43.4551 20.5438 41.7337C20.5438 38.1404 17.3159 36.8335 13.3342 36.8335C9.35251 36.8335 6.12469 38.1405 6.12469 41.7337C6.12469 44.9927 7.80423 48.3522 11.9727 48.9491M32.2156 31.7207C33.3883 30.4885 34.4563 29.0715 35.2188 27.2944M25.4016 38.4258C26.1519 37.2616 27.1886 36.2571 28.328 35.2529M59.4292 47.8626C57.2039 48.8813 54.2217 49.5054 50.9417 49.5054C47.6633 49.5054 44.6823 48.8819 42.4573 47.8641" stroke="#222222" stroke-width="2" stroke-miterlimit="10" stroke-linecap="round" stroke-linejoin="round"/>
<path d="M42.3698 42.8838V42.9232C42.3698 42.9232 42.3306 62.1275 45.3567 73.4177M56.5461 73.4177C59.5651 62.1274 59.5137 42.9232 59.5137 42.9232V42.8838M66.7803 27.6182C69.9375 34.4638 77.6594 35.8716 77.6594 42.521C77.6594 46.4635 74.4778 49.6607 70.5509 49.6607H68.1412" stroke="#222222" stroke-width="2" stroke-miterlimit="10" stroke-linecap="round" stroke-linejoin="round"/>
<path d="M54.143 41.3034C55.3117 41.6553 66.5811 42.4563 72.5314 57.4684L77.9506 71.1799C78.2432 71.9199 78.5357 72.6598 78.8281 73.3998M47.7402 41.3037C46.9341 41.5465 41.32 42.0026 35.9619 47.1924M67.0641 20.854C67.9345 21.6009 68.4842 22.6999 68.4842 23.9229C68.4842 26.176 66.6225 28.0017 64.3272 28.0017C64.0008 28.0018 63.6756 27.964 63.358 27.8888M38.5256 27.8888C38.208 27.964 37.8828 28.0019 37.5564 28.0017C35.2611 28.0017 33.3994 26.176 33.3994 23.9229C33.3994 22.7001 33.9489 21.6009 34.8195 20.854M54.1438 44.4073V39.029M47.7399 44.4073V39.029" stroke="#222222" stroke-width="2" stroke-miterlimit="10" stroke-linecap="round" stroke-linejoin="round"/>
<path d="M63.3891 21.0986V26.9991C63.3891 33.8735 57.8163 39.4463 50.9419 39.4463C44.0675 39.4463 38.4947 33.8735 38.4947 26.9991V21.0986M50.9417 26.7622V28.4746" stroke="#222222" stroke-width="2" stroke-miterlimit="10" stroke-linecap="round" stroke-linejoin="round"/>
<path d="M54.1435 32.1794C52.3753 33.9555 49.5085 33.9555 47.7403 32.1794M45.0553 25.3617L45.0433 25.6863M56.8403 25.6863L56.8283 25.3617M44.8042 21.0984H35.3981C35.1836 21.0984 34.9779 21.0132 34.8262 20.8615C34.6745 20.7098 34.5892 20.5041 34.5892 20.2895V13.7209C34.5892 7.15484 39.912 1.83203 46.4781 1.83203H53.1714V12.7313C53.1713 17.3523 49.4252 21.0984 44.8042 21.0984Z" stroke="#222222" stroke-width="2" stroke-miterlimit="10" stroke-linecap="round" stroke-linejoin="round"/>
<path d="M53.1713 12.7127C53.1713 17.3441 56.9089 21.0984 61.5197 21.0984H66.4874C66.9331 21.0984 67.2945 20.7355 67.2945 20.2877V13.7477C67.2945 11.5594 66.7045 9.51063 65.6797 7.74813M62.1092 3.89907C60.1442 2.54976 57.8157 1.82896 55.432 1.83204H53.1713M34.6453 78.1678H13.6514C12.7578 78.1678 12.0334 77.4434 12.0334 76.5499V48.3331C12.0334 47.4395 12.7578 46.7152 13.6514 46.7152H34.6453C35.5389 46.7152 36.2633 47.4395 36.2633 48.3331V76.55C36.2633 77.4434 35.5389 78.1678 34.6453 78.1678Z" stroke="#222222" stroke-width="2" stroke-miterlimit="10" stroke-linecap="round" stroke-linejoin="round"/>
<path d="M20.0436 62.2739L24.208 52.0947L28.3464 62.263M21.5484 60.6413H26.8414M17.3639 67.6902L18.2437 68.5739L19.8775 66.9328M23.7869 67.7533H31.0259M17.3639 72.5339L18.2437 73.4175L19.8775 71.7764M23.7869 72.5971H31.0259" stroke="#72A206" stroke-width="2" stroke-miterlimit="10" stroke-linecap="round" stroke-linejoin="round"/>
</svg>
