<svg width="48" height="48" viewBox="0 0 48 48" fill="none" xmlns="http://www.w3.org/2000/svg">
<rect width="48" height="48" rx="24" fill="#72A206"/>
<path d="M25.179 32.4001C16.1592 32.4001 11.0144 26.0938 10.8 15.6001H15.3182C15.4666 23.3022 18.7975 26.5647 21.4359 27.2373V15.6001H25.6902V22.2427C28.2956 21.9569 31.0329 18.9298 31.9563 15.6001H36.2106C35.8627 17.327 35.169 18.9621 34.1731 20.4031C33.1772 21.8441 31.9005 23.0601 30.4227 23.9749C32.0722 24.8108 33.5292 25.9939 34.6974 27.4462C35.8656 28.8985 36.7186 30.5869 37.2 32.4001H32.5169C32.0848 30.8252 31.2065 29.4155 29.9921 28.3475C28.7777 27.2795 27.2812 26.6008 25.6902 26.3965V32.4001H25.179V32.4001Z" fill="white"/>
</svg>
